<svg width="512" height="96" viewBox="0 0 512 96" xmlns="http://www.w3.org/2000/svg" transform="scale(-1 1)"><g fill="none"><path fill="#FF8622" d="M0 0h96v96H0zm104 0h96v96h-96z"/><path fill="#DCDCE6" d="M208 0h96v96h-96zm104 0h96v96h-96zm104 0h96v96h-96z"/><path d="M48 64.7 62.6 61l6.1 18.8zm33.6-24.3H55.9L48 16.2l-7.9 24.2H14.4l20.8 15-7.9 24.2 20.8-15 12.8-9.2zM152 64.7l14.6-3.7 6.1 18.8zm33.6-24.3h-25.7L152 16.2l-7.9 24.2h-25.7l20.8 15-7.9 24.2 20.8-15 12.8-9.2zM256 64.7l14.6-3.7 6.1 18.8zm33.6-24.3h-25.7L256 16.2l-7.9 24.2h-25.7l20.8 15-7.9 24.2 20.8-15 12.8-9.2zM360 64.7l14.6-3.7 6.1 18.8zm33.6-24.3h-25.7L360 16.2l-7.9 24.2h-25.7l20.8 15-7.9 24.2 20.8-15 12.8-9.2zM464 64.7l14.6-3.7 6.1 18.8zm33.6-24.3h-25.7L464 16.2l-7.9 24.2h-25.7l20.8 15-7.9 24.2 20.8-15 12.8-9.2z" fill="#FFF"/></g></svg>